<?xml version="1.0" encoding="utf-8"?>
<!-- Generator: Adobe Illustrator 26.0.1, SVG Export Plug-In . SVG Version: 6.00 Build 0)  -->
<svg version="1.1" id="Layer_1" xmlns="http://www.w3.org/2000/svg" xmlns:xlink="http://www.w3.org/1999/xlink" x="0px" y="0px"
	 viewBox="0 0 26 25" style="enable-background:new 0 0 26 25;" xml:space="preserve">
<style type="text/css">
	.st0{fill:#FFFFFF;}
</style>
<path class="st0" d="M18,9.7l-4.1-7.5c-0.6-1.1-0.1-2.2,1.2-2.2h1c0.6,0,1,0.4,1.4,0.9l8.2,10.6c0.3,0.5,0.5,1.2,0,1.8l-7.8,11.1
	c-0.3,0.3-0.6,0.6-1.2,0.6h-1.4c-1.3,0-1.7-1-1.1-2.2l3.8-7.5H1c-0.5,0-1-0.5-1-1v-3.6c0-0.5,0.5-1,1-1C1,9.7,18,9.7,18,9.7z"/>
</svg>
