<?xml version="1.0" encoding="utf-8"?>
<!-- Generator: Adobe Illustrator 26.0.1, SVG Export Plug-In . SVG Version: 6.00 Build 0)  -->
<svg version="1.1" id="Layer_1" xmlns="http://www.w3.org/2000/svg" xmlns:xlink="http://www.w3.org/1999/xlink" x="0px" y="0px"
	 viewBox="0 0 90.8 154.9" style="enable-background:new 0 0 90.8 154.9;" xml:space="preserve">
<style type="text/css">
	.st0{fill:#F2B223;}
</style>
<g id="Xvv0hT.tif">
	<g>
		<path class="st0" d="M15.2,0C18,0.9,20,2.9,22,4.9c21.9,21.9,43.8,43.9,65.7,65.8c2.7,2.7,3.8,5.7,2.8,9.4
			c-0.4,1.5-1.3,2.7-2.4,3.8c-22.7,22.7-45.4,45.5-68.2,68.2c-3.8,3.8-8.8,3.8-12.6,0.1c-1.8-1.8-3.6-3.5-5.3-5.4
			c-2.7-3.2-2.6-7.7,0.2-10.9c0.4-0.5,0.9-1,1.4-1.4C22,115.8,40.6,97.2,59.2,78.7c0.9-0.9,1.1-1.4,0-2.4
			C40.5,57.5,21.8,38.8,3.1,20.1c-3.5-3.5-4.2-8.3-1.3-11.6c2.9-3.3,5.7-7,10.1-8.5C13,0,14.1,0,15.2,0z"/>
	</g>
</g>
</svg>
