<?xml version="1.0" encoding="utf-8"?>
<!-- Generator: Adobe Illustrator 26.0.1, SVG Export Plug-In . SVG Version: 6.00 Build 0)  -->
<svg version="1.1" id="Layer_1" xmlns="http://www.w3.org/2000/svg" xmlns:xlink="http://www.w3.org/1999/xlink" x="0px" y="0px"
	 viewBox="0 0 55.1 55.1" style="enable-background:new 0 0 55.1 55.1;" xml:space="preserve">
<style type="text/css">
	.st0{fill:#FFFFFF;}
	.st1{opacity:0.3;}
</style>
<g>
	<g id="zrP4o6.tif">
		<g>
			<g>
				<path class="st0" d="M30,16.4c0.5,0.1,0.8,0.4,1.1,0.8c3.1,3.1,6.2,6.2,9.3,9.2c0.6,0.6,0.7,1.3,0.3,1.9
					c-0.1,0.1-0.2,0.3-0.3,0.4c-3.2,3.2-6.3,6.4-9.5,9.5c-0.7,0.7-1.6,0.7-2.3,0c-0.2-0.2-0.5-0.5-0.7-0.7c-0.7-0.7-0.7-1.5,0-2.2
					c1.8-1.8,3.6-3.6,5.4-5.4c0.1-0.1,0.1-0.1,0.2-0.2c-0.2,0-0.3,0-0.4,0c-5.7,0-11.5,0-17.2,0.1c-1.2,0-1.5-0.2-1.9-1.3
					c0-0.6,0-1.2,0-1.8c0.1-0.1,0.1-0.2,0.1-0.3c0.3-0.6,0.8-0.8,1.5-0.8c5.8,0,11.6,0,17.5-0.1c0.1,0,0.2,0,0.4,0
					c-0.1-0.1-0.2-0.2-0.2-0.2c-1.8-1.7-3.5-3.5-5.3-5.2c-0.1-0.1-0.2-0.2-0.3-0.3c-0.4-0.5-0.4-1.2,0-1.7c0.5-0.6,1-1.3,1.8-1.5
					C29.7,16.4,29.8,16.4,30,16.4z"/>
			</g>
		</g>
	</g>
	<g class="st1">
		<path class="st0" d="M27.6,55.1c-3.7,0-7.3-0.7-10.7-2.1c-3.3-1.4-6.2-3.4-8.8-5.9c-2.5-2.5-4.5-5.5-5.9-8.7
			C0.8,34.9,0,31.3,0,27.6c0-3.7,0.7-7.3,2.1-10.7c1.4-3.3,3.4-6.2,5.9-8.8c2.5-2.5,5.5-4.5,8.7-5.9c3.4-1.4,7-2.2,10.7-2.2
			s7.3,0.7,10.7,2.1c3.3,1.4,6.2,3.4,8.8,5.9c2.5,2.5,4.5,5.5,5.9,8.7c1.4,3.4,2.2,7,2.2,10.7c0,3.7-0.7,7.3-2.1,10.7
			c-1.4,3.3-3.4,6.2-5.9,8.8s-5.5,4.5-8.7,5.9C34.9,54.3,31.3,55,27.6,55.1z M27.4,2.4c-6.7,0-13,2.6-17.7,7.4
			C5,14.6,2.4,20.9,2.4,27.6c0,6.7,2.6,13,7.4,17.7c4.8,4.7,11.1,7.3,17.8,7.3c6.7,0,13-2.6,17.7-7.4c4.7-4.8,7.3-11.1,7.3-17.8
			c0-6.7-2.6-13-7.4-17.7C40.5,5,34.1,2.4,27.4,2.4z"/>
	</g>
</g>
</svg>
