<svg xmlns="http://www.w3.org/2000/svg" width="729" height="257" viewBox="0 0 729 257"><g fill="none" fill-rule="evenodd"><path fill="#FFFFFE" d="M725.3 4.9c-3-3.3-7.4-5-11.8-4.5L363.8 39.9 15.4.4A13.7 13.7 0 0 0 .5 17l9.2 40.6a42916 42916 0 0 0 34.9 153c3.9 17 15.8 26 34.5 26h62.5a25.2 25.2 0 0 0 24.9 20H561c12.3 0 22.5-8.6 24.8-20h62.6c18.8 0 30.3-8.7 34.4-26a97405 97405 0 0 1 36.8-156.3l8.7-37.3c1-4.3 0-8.8-3-12.1"/><path fill="#006D42" d="M79 231.7c-16.3 0-26.1-7.3-29.6-22.3-17-73.8-36.8-162-44-193.5a8.7 8.7 0 0 1 9.4-10.6l349 39.6L714 5.3c6-.6 10.8 4.8 9.5 10.6l-45.6 193.5c-3.5 15-13.1 22.3-29.5 22.3H79.1"/><path fill="#FFFFFE" d="M647.7 219.3c10.7 0 15.6-2.9 17.9-12.7 21.7-92.8 44.3-188.4 44.3-188.4L363.8 57.4 18.5 18.2s21 95.6 42.8 188.4c2.3 9.8 7.3 12.8 18 12.7h568.4"/><path fill="#006D42" d="M581.3 231.9a20 20 0 0 1-20.3 19.6H166.5A20 20 0 0 1 146 232V222a20 20 0 0 1 20.4-19.6H561a20 20 0 0 1 20.3 19.6v9.9"/><path fill="#FFFFFE" d="M190.1 234.5c4.3 0 7.3-3.3 7.3-7.6 0-4.2-3-7.5-7.3-7.5h-3.6v15h3.6zm-9.4-19.9c0-.3.3-.7.7-.7h9.1a13 13 0 0 1 13.1 13c0 7.2-5.9 13-13.1 13h-9.1c-.4 0-.7-.3-.7-.6v-24.7z"/><path stroke="#FFFFFE" stroke-linecap="round" stroke-linejoin="round" stroke-width=".1" d="M190.1 234.5c4.3 0 7.3-3.3 7.3-7.6 0-4.2-3-7.5-7.3-7.5h-3.6v15h3.6zm-9.4-19.9c0-.3.3-.7.7-.7h9.1a13 13 0 0 1 13.1 13c0 7.2-5.9 13-13.1 13h-9.1c-.4 0-.7-.3-.7-.6v-24.7z"/><path fill="#FFFFFE" d="M237 234.4c4 0 7.4-3.4 7.4-7.4 0-4.1-3.3-7.5-7.5-7.5-4 0-7.4 3.4-7.4 7.5 0 4 3.4 7.4 7.4 7.4zm0-20.9a13.4 13.4 0 1 1 0 26.8 13.4 13.4 0 0 1 0-26.8z"/><path stroke="#FFFFFE" stroke-linecap="round" stroke-linejoin="round" stroke-width=".1" d="M237 234.4c4 0 7.4-3.4 7.4-7.4 0-4.1-3.3-7.5-7.5-7.5-4 0-7.4 3.4-7.4 7.5 0 4 3.4 7.4 7.4 7.4zm0-20.9a13.4 13.4 0 1 1 0 26.8 13.4 13.4 0 0 1 0-26.8z"/><path fill="#FFFFFE" d="M271.6 214.6c0-.3.4-.7.8-.7h4.6c.4 0 .7.4.7.7v15.1c0 2.6 2 4.7 4.6 4.7 2.6 0 4.6-2 4.6-4.7v-15c0-.4.3-.8.7-.8h4.6c.4 0 .7.4.7.7V230c0 5.7-4.7 10.3-10.6 10.3-6 0-10.7-4.6-10.7-10.3v-15.4"/><path stroke="#FFFFFE" stroke-linecap="round" stroke-linejoin="round" stroke-width=".1" d="M271.6 214.6c0-.3.4-.7.8-.7h4.6c.4 0 .7.4.7.7v15.1c0 2.6 2 4.7 4.6 4.7 2.6 0 4.6-2 4.6-4.7v-15c0-.4.3-.8.7-.8h4.6c.4 0 .7.4.7.7V230c0 5.7-4.7 10.3-10.6 10.3-6 0-10.7-4.6-10.7-10.3v-15.4z"/><path fill="#FFFFFE" d="M327.6 213.6c3.1 0 6.6 1.3 9.1 3.5.3.2.4.7 0 1l-2.9 3.1c-.3.3-.7.3-1 0a6.9 6.9 0 0 0-4.9-1.7 7.5 7.5 0 0 0 0 14.9c1.1 0 2.3-.2 3.4-.6v-2.2h-2.4c-.4 0-.7-.3-.7-.6v-3.7c0-.4.3-.7.7-.7h7.5c.4 0 .7.3.7.7v10c0 .2 0 .5-.2.6 0 0-3.9 2.4-9.3 2.4a13.4 13.4 0 0 1 0-26.7"/><path stroke="#FFFFFE" stroke-linecap="round" stroke-linejoin="round" stroke-width=".1" d="M327.6 213.6c3.1 0 6.6 1.3 9.1 3.5.3.2.4.7 0 1l-2.9 3.1c-.3.3-.7.3-1 0a6.9 6.9 0 0 0-4.9-1.7 7.5 7.5 0 0 0 0 14.9c1.1 0 2.3-.2 3.4-.6v-2.2h-2.4c-.4 0-.7-.3-.7-.6v-3.7c0-.4.3-.7.7-.7h7.5c.4 0 .7.3.7.7v10c0 .2 0 .5-.2.6 0 0-3.9 2.4-9.3 2.4a13.4 13.4 0 0 1 0-26.7z"/><path fill="#FFFFFE" d="M359.6 214.6c0-.3.3-.7.7-.7h4.5c.4 0 .7.4.7.7v9.4h10.7v-9.4c0-.3.3-.7.7-.7h4.4c.4 0 .7.4.7.7v24.7c0 .3-.3.7-.7.7H377a.7.7 0 0 1-.7-.7v-9.8h-10.7v9.8c0 .3-.3.7-.7.7h-4.5a.7.7 0 0 1-.7-.7v-24.7"/><path stroke="#FFFFFE" stroke-linecap="round" stroke-linejoin="round" stroke-width=".1" d="M359.6 214.6c0-.3.3-.7.7-.7h4.5c.4 0 .7.4.7.7v9.4h10.7v-9.4c0-.3.3-.7.7-.7h4.4c.4 0 .7.4.7.7v24.7c0 .3-.3.7-.7.7H377a.7.7 0 0 1-.7-.7v-9.8h-10.7v9.8c0 .3-.3.7-.7.7h-4.5a.7.7 0 0 1-.7-.7v-24.7z"/><path fill="#FFFFFE" d="M405.4 214.2c0-.4.3-.7.7-.7h.9l14.9 14.3v-13.2c0-.3.3-.7.8-.7h4.4c.4 0 .7.4.7.7v25c0 .4-.3.7-.7.7h-.6l-.4-.1-14.8-14.8v13.9c0 .3-.3.7-.8.7h-4.4a.7.7 0 0 1-.7-.7v-25"/><path stroke="#FFFFFE" stroke-linecap="round" stroke-linejoin="round" stroke-width=".1" d="M405.4 214.2c0-.4.3-.7.7-.7h.9l14.9 14.3v-13.2c0-.3.3-.7.8-.7h4.4c.4 0 .7.4.7.7v25c0 .4-.3.7-.7.7h-.6l-.4-.1-14.8-14.8v13.9c0 .3-.3.7-.8.7h-4.4a.7.7 0 0 1-.7-.7v-25z"/><path fill="#FFFFFE" d="M451 214.6c0-.3.3-.7.6-.7h4.6c.4 0 .7.4.7.7v15.1c0 2.6 2 4.7 4.6 4.7 2.7 0 4.7-2 4.7-4.7v-15c0-.4.3-.8.7-.8h4.6c.4 0 .7.4.7.7V230c0 5.7-4.8 10.3-10.7 10.3-5.8 0-10.6-4.6-10.6-10.3v-15.4"/><path stroke="#FFFFFE" stroke-linecap="round" stroke-linejoin="round" stroke-width=".1" d="M451 214.6c0-.3.3-.7.6-.7h4.6c.4 0 .7.4.7.7v15.1c0 2.6 2 4.7 4.6 4.7 2.7 0 4.7-2 4.7-4.7v-15c0-.4.3-.8.7-.8h4.6c.4 0 .7.4.7.7V230c0 5.7-4.8 10.3-10.7 10.3-5.8 0-10.6-4.6-10.6-10.3v-15.4z"/><path fill="#FFFFFE" d="M498.5 219.4h-5.3a.7.7 0 0 1-.7-.7v-4c0-.4.3-.8.7-.8h16.6c.4 0 .7.4.7.7v4c0 .5-.3.8-.7.8h-5.4v19.9c0 .3-.3.7-.7.7h-4.5a.7.7 0 0 1-.7-.7v-20"/><path stroke="#FFFFFE" stroke-linecap="round" stroke-linejoin="round" stroke-width=".1" d="M498.5 219.4h-5.3a.7.7 0 0 1-.7-.7v-4c0-.4.3-.8.7-.8h16.6c.4 0 .7.4.7.7v4c0 .5-.3.8-.7.8h-5.4v19.9c0 .3-.3.7-.7.7h-4.5a.7.7 0 0 1-.7-.7v-20z"/><path fill="#FFFFFE" d="M530.2 236.4l1.7-3c.3-.5 1-.5 1.3-.3.2.1 2.8 2 5.3 2 1.5 0 2.6-.9 2.6-2.2 0-1.5-1.3-2.7-3.9-3.7-3.2-1.3-7.2-3.8-7.2-8.2 0-3.7 2.9-7.5 8.6-7.5 4 0 6.9 2 8 2.8.5.3.4 1 .2 1.2l-1.9 2.9c-.2.4-.9.7-1.2.5-.4-.2-3.1-2.3-5.4-2.3-1.3 0-2.3 1-2.3 2 0 1.3 1 2.4 4 3.6 3 1.1 7.6 3.4 7.6 8.4 0 3.9-3.3 7.7-8.8 7.7-4.9 0-7.6-2-8.4-2.8-.4-.4-.5-.5-.2-1"/><path stroke="#FFFFFE" stroke-linecap="round" stroke-linejoin="round" stroke-width=".1" d="M530.2 236.4l1.7-3c.3-.5 1-.5 1.3-.3.2.1 2.8 2 5.3 2 1.5 0 2.6-.9 2.6-2.2 0-1.5-1.3-2.7-3.9-3.7-3.2-1.3-7.2-3.8-7.2-8.2 0-3.7 2.9-7.5 8.6-7.5 4 0 6.9 2 8 2.8.5.3.4 1 .2 1.2l-1.9 2.9c-.2.4-.9.7-1.2.5-.4-.2-3.1-2.3-5.4-2.3-1.3 0-2.3 1-2.3 2 0 1.3 1 2.4 4 3.6 3 1.1 7.6 3.4 7.6 8.4 0 3.9-3.3 7.7-8.8 7.7-4.9 0-7.6-2-8.4-2.8-.4-.4-.5-.5-.2-1z"/><path fill="#C72438" d="M523.1 117.7c3 0 3 4 2.8 6.7-.5 6.9-4.5 15-14.8 16.1 1.3-11.5 6.4-22.8 12-22.8zm123.5 0c2.1 0 2.7 2.8 2.7 4.6.2 10.2-6.2 17.6-14.8 18.2 1.3-11.6 6.1-22.8 12.1-22.8zM474.1 89.2h185.2c10.1 0 18.2-8.3 18-18.7l-.1-1.2c-.2-1.4-2.1-2.6-2.9-1.4-2.2 3.2-9.7 3.2-14.5 3.2h-186c-31 0-57.3 37-63.3 44.9 3-8.6 8.9-26.6 8.7-33.6-.3-16-18.8-16.8-28-13.3-1 .4-.7 2.1.4 2.3 3.1.6 9 3 6.8 11.7-.1 1.3-24.6 91-24.6 91-.3 1 .4 2 1.4 2h17.3c.6 0 1.2-.4 1.3-1l8.8-30.7c4.4-12.4 11-20.6 16.4-20.6 2.6 0 3.9 1.5 3.9 3.3 0 4-5.6 21.8-8 31-3 11.8 4 20 15.2 20 11.7 0 16.8-6 23-17.8 2.6-5 12.8-34.2 14.6-40.4 2 .5 5 .9 7.6 1l-4.3 17c-1.2 4.8-2.5 9.5-2.5 14.6-.2 7.3 2.3 15.3 11 15.3 9.5 0 15.5-6.2 19-10.6 2 4.6 7.5 10.6 16.5 10.6s16.5-3.4 22-10.4l-2.3 8.1c-.2.9.4 1.7 1.3 1.7h12.6c.6 0 1.1-.4 1.3-1l9.4-34.7c1.8-4.8 7.7-9 11-9 1.5 0 2.4 1 1.9 3.3l-10.4 39.7c-.2.9.4 1.7 1.3 1.7h12.7c.5 0 1-.4 1.2-1l9-34.7c2.2-4.7 7.8-9 11-9 1.6 0 2.4 1 1.9 3.3l-4.1 15.6c-5.4 20.4-.4 26.4 10.1 26.4 7.5 0 13.5-4 17.3-9.4 3.1 7.5 10.1 9.5 16.4 9.5 13.3 0 20-9 23-13.4.5-.7.4-1.8-.2-2.2l-1.9-1.3c-.6-.4-1.5-.3-1.8.1-3.3 4-7.2 7.5-14.5 7.5-6.4 0-8.8-6.6-9-11.1 0-.8 0-1.2.2-1.8 18.1 0 26.4-11.8 26.3-20.6-.2-7-3.7-14-13.9-14-17.6 0-27.6 19.3-27.3 34.5 0 .9.3 5.2.7 7.3-1.7 2.2-5.1 4.9-8.1 4.9s-3.7-3.3-3.3-7c1-10.5 5.8-22.5 5.7-30.5 0-3.3-1.7-9.2-9.7-9.2a24 24 0 0 0-17.7 9.3c-.3-3.4-.8-9.3-9-9.3a23 23 0 0 0-16.1 8.2l1.6-5.9c.2-.8-.4-1.7-1.3-1.7h-12c-.5 0-1 .4-1.2 1l-7.2 26.3c-7.7 18.1-16.1 19.7-22.5 19.7-5.8 0-9-7-8.4-13 15 0 26.4-9 26.2-20.8-.1-7.6-4.2-13.9-14.2-13.9-19.3 0-27 23.3-26.8 35 0 1.9.2 3.8.4 5.2-.6 1.3-3.8 5-7.7 5-5.8 0-5.7-13.5 3.5-41.2l.4-1c.3-.8-.3-1.7-1.2-1.7-4 0-15.2 1.2-21.5-1.2 0-.1 2-10-8-10-5 0-8.5 3.2-8.4 7.5 0 6.1 4.6 8.6 7.3 9.8-4.3 13-8.8 25.7-13 35.3-4 9.2-7.6 11.7-10.3 11.7-2.3 0-3-1.7-3.1-3.7-.2-7 10-25.4 9.6-41.6-.1-6.3-4.7-10-10.6-10-3 0-7.9.7-12.4 4.1 0 0 17.7-25 53-25zM228.4 89.3h134.3c10.2 0 18.2-8.4 18-18.8v-1.2c-.2-1.4-2-2.8-3-1.4-1.9 3-7.9 3.2-12.7 3.2H228.3c1.9 2.6 3 5.6 3 9a16 16 0 0 1-3 9.2M215.5 89.3a9 9 0 1 0 0-18.2 9 9 0 0 0 0 18.2"/><path fill="#C72438" d="M323.6 186.9c-1.8 0-3-1.2-3-2.7-.1-5.3 8-8.3 13.3-8.5-2.8 6.8-4.8 11.2-10.3 11.2zm-29-55.2c-2.3 14.7-6.8 27.2-13.8 27.2-3.7 0-5.2-4-3.7-9.6l4.4-16.4c1.6-6 4.6-12.2 9.8-12.2 2.6 0 4.7 3 3.4 11zm-63.2 29.8c-2.1 0-4.1-1.1-4.1-2.2 0-1.7 2.4-2.8 2.4-6.9 0-2-1-5.2-3-6.3 1.3-2.1 9.6-17 10.4-19 .3 1.6 2.5 8.2 2.8 21.4.1 7.5-4.1 13-8.5 13zm134.1-49.8H353c-.6 0-1 .4-1.3 1l-8.6 31.4c-2.7 9.3-6.4 14.1-10 14.1-3.7 0-4.1-4.6-3.3-8.5l10-36.2c.2-1-.5-1.8-1.4-1.8h-12.5c-.6 0-1.1.4-1.3 1l-.6 2-5 18.5-2.7 10a22.8 22.8 0 0 1-8.3 11.6 29.7 29.7 0 0 1-6.4 3.4c3.5-5.3 6-12.4 7.7-20.4 3-15-.4-26.8-11.4-26.8-4.3 0-8.9 1.3-12.7 6.1l1-3.7c.2-.8-.4-1.7-1.3-1.7H273c-.6 0-1.1.4-1.3 1l-.4 1.4-8.6 31.8c-1.4 5-4.8 8-6.7 9.4-1.4 1-2.7 1.7-4.1 2.3 2.2-4.3 2.4-8.7 2.4-10.4-.2-11.4-4.8-22.7-5-30.6 0-3.8 1.2-6 2-7.4.5-.8.1-1.7-.7-1.7h-7c-.5 0-1.5.1-2.2 1.2-3.1 5.1-14 25-20.5 35.6-4.3.7-8.4 5.3-6.8 10.5-.6.9-2.6 3.4-5.3 3.4-2 0-2.6-3.5-.7-10.8l.1-.6 9-33.5c.3-.8-.3-1.6-1.1-1.6h-11.7c-1 0-2.2.4-2.5 1.5l-.4 1.6-8.9 32.7c-1.3 4.8-5.4 8.6-8.6 8.6-5.6 0-5.4-14.6 3.4-41.1l.4-1c.3-.9-.3-1.8-1.2-1.8-4 .1-15.1 1.3-21.4-1.1.4-2 .7-10-8.6-10-4.9 0-8.8 4-7.9 9 .7 4.5 4.7 7 7.4 8.2a406.6 406.6 0 0 1-14.6 39c-1.3 2.8-5.2 8.2-9 8.2-2.5 0-2.8-2.3-2.9-4.3 0-5 9.8-26.6 9.6-40.3 0-3.4-2-10.8-10.3-10.8-5.5 0-9.2 1.5-12.8 4.1 0 0 17.1-25 52.3-25h34.2a15.7 15.7 0 0 1 0-18l-34.4-.1c-31 0-56.7 37-62.8 44.9 3-8.6 8.9-26.6 8.8-33.6-.3-16-18.8-16.8-28.1-13.3-1 .4-.6 2.1.4 2.3 3.1.6 9 3 6.9 11.7-.2 1.3-24.7 91-24.7 91-.2 1 .5 2 1.4 2h17.3c.7 0 1.2-.4 1.4-1l8.7-30.7c4-11.1 10.4-20.6 16.4-20.6 5.4 0 4 5.2 2.8 9.4l-6.9 25.1c-3.6 13.5 7.1 19.8 16.4 19.8 13.1 0 18-9.5 21.9-17.8 4.3-9.3 12.7-34.2 14.6-40.4 2 .5 5 .8 7.6 1l-4.4 17c-1.1 4.8-2.4 9.5-2.5 14.6-.1 6.4 2.3 15.5 11.7 15.5 6.2 0 11-2.6 14.7-6.7l.9-1c.3 1.2.9 2.5 1.7 3.5 2.4 3 6 4 10 4 6.3 0 12-4.2 14.1-6.9 2.3 3.6 6.9 7 15.6 7h2c8.8-.5 18.1-3.3 24.8-8l-6.7 24.7c-.2 1 .5 1.9 1.4 1.9h12.4c.6 0 1.2-.5 1.4-1l5.8-22.1c2 3 5.5 4.5 12.9 4.5 11.2 0 21.6-4.3 28-11.4.9 7 6 11.4 11.1 11.4 3.2 0 8.6-.5 12.9-5.6 0 0-1.7 6-2.3 7.6-13.7 0-24 7.5-23.8 15.7.1 5.6 6.4 9.6 13.2 9.6 15.7 0 20.6-10.4 24-18.5 2.3.4 8.2 2 9.8 2.4.7.2 1.4-.2 1.5-.9l.9-2.5c.2-.7-.1-1.7-.8-1.9l-9.5-2.6 15.7-57.7c.2-1-.5-1.8-1.4-1.8z"/><path fill="#006D42" d="M691 222.9h-2.2V220h2.3c.7 0 1.2.7 1.2 1.4 0 .8-.5 1.5-1.3 1.5zm3.2-1.6c0-1.8-1.4-2.6-3-2.6H687v9h1.8v-3.5h2c1.2 0 1.4 1.2 1.5 3.5h1.8c-.1-1.6.1-3.2-1.5-4.2 1-.4 1.6-1.2 1.6-2.2z"/><path fill="#006D42" d="M690.3 216.3a7 7 0 1 0 0 14 7 7 0 0 0 0-14zm8.4 7a8.4 8.4 0 1 1-16.7 0 8.4 8.4 0 0 1 16.7 0z"/></g></svg>