<?xml version="1.0" encoding="utf-8"?>
<!-- Generator: Adobe Illustrator 26.0.1, SVG Export Plug-In . SVG Version: 6.00 Build 0)  -->
<svg version="1.1" id="Layer_1" xmlns="http://www.w3.org/2000/svg" xmlns:xlink="http://www.w3.org/1999/xlink" x="0px" y="0px"
	 viewBox="0 0 151.3 151.3" style="enable-background:new 0 0 151.3 151.3;" xml:space="preserve">
<style type="text/css">
	.st0{fill:#FFFFFF;}
	.st1{fill:#C30823;}
</style>
<circle class="st0" cx="75.5" cy="75.8" r="73"/>
<g>
	<g id="BHxLHU.tif_00000116940968812244247340000010557649766815689650_">
		<g>
			<g>
				<path d="M76.2,96.1c-0.2,0-0.4,0-0.6,0c-0.2-0.1-0.4-0.2-0.6-0.3c-5.4-3.4-10.4-7.2-14.7-11.8c-2.4-2.6-4.6-5.4-6.1-8.7
					c-1.3-2.8-1.9-5.7-1.3-8.7c1.1-5.2,4.2-8.8,9.3-10.4c5-1.5,9.5-0.3,13.4,3.3c0.3,0.3,0.4,0.3,0.7,0c3-2.9,6.6-4.2,10.7-3.8
					c5.4,0.5,10.1,4.4,11.6,9.6c0.3,0.9,0.4,1.8,0.5,2.7c0,0.7,0,1.3,0,2c-0.2,0.9-0.3,1.7-0.5,2.6c-0.9,3.3-2.7,6.1-4.8,8.8
					c-2.8,3.5-6.1,6.6-9.7,9.3C81.5,92.6,78.9,94.5,76.2,96.1z M96.1,68.9c0-0.7-0.1-1.3-0.2-1.9c-0.9-5.5-6.5-9.4-12-8.4
					c-2.8,0.5-5.1,1.9-6.8,4.2c-0.3,0.5-0.8,0.7-1.4,0.7c-0.6,0-0.9-0.4-1.2-0.8c-3.4-4.6-10-5.6-14.6-2.2
					c-3.8,2.8-5.2,7.6-3.6,12.3c1,3,2.8,5.5,4.8,7.8c4.2,4.8,9.2,8.7,14.5,12.2c0.2,0.2,0.4,0.1,0.6,0c3.8-2.5,7.3-5.2,10.6-8.2
					c2.7-2.6,5.3-5.3,7.2-8.6C95.2,73.8,96.1,71.5,96.1,68.9z"/>
			</g>
		</g>
	</g>
	<g>
		<path d="M75.7,151.3c-10.2,0-20.1-2-29.5-5.9c-9-3.8-17.1-9.3-24.1-16.2c-6.9-6.9-12.4-15-16.2-24.1C2,95.8,0,85.9,0,75.7
			c0-10.2,2-20.1,5.9-29.5c3.8-9,9.3-17.1,16.2-24.1s15-12.4,24.1-16.2C55.5,2,65.5,0,75.7,0s20.1,2,29.5,5.9
			c9,3.8,17.1,9.3,24.1,16.2c6.9,6.9,12.4,15,16.2,24.1c3.9,9.3,5.9,19.2,5.9,29.5c0,10.2-2,20.1-5.9,29.5
			c-3.8,9-9.3,17.1-16.2,24.1c-6.9,6.9-15,12.4-24.1,16.2C95.8,149.3,85.9,151.3,75.7,151.3z M75.7,4C66,4,56.6,5.8,47.8,9.6
			C39.2,13.2,31.5,18.4,25,25c-6.6,6.6-11.8,14.3-15.4,22.8C5.8,56.6,4,66,4,75.7c0,9.7,1.9,19.1,5.6,27.9
			c3.6,8.5,8.8,16.2,15.4,22.8c6.6,6.6,14.3,11.8,22.8,15.4c8.8,3.7,18.2,5.6,27.9,5.6s19.1-1.9,27.9-5.6
			c8.5-3.6,16.2-8.8,22.8-15.4c6.6-6.6,11.8-14.3,15.4-22.8c3.7-8.8,5.6-18.2,5.6-27.9c0-9.7-1.9-19.1-5.6-27.9
			c-3.6-8.5-8.8-16.2-15.4-22.8c-6.6-6.6-14.3-11.8-22.8-15.4C94.7,5.8,85.4,4,75.7,4z"/>
	</g>
</g>
</svg>
