<?xml version="1.0" encoding="utf-8"?>
<!-- Generator: Adobe Illustrator 26.0.1, SVG Export Plug-In . SVG Version: 6.00 Build 0)  -->
<svg version="1.1" id="Layer_1" xmlns="http://www.w3.org/2000/svg" xmlns:xlink="http://www.w3.org/1999/xlink" x="0px" y="0px"
	 viewBox="0 0 151.3 151.3" style="enable-background:new 0 0 151.3 151.3;" xml:space="preserve">
<style type="text/css">
	.st0{fill:#BA3430;}
	.st1{fill:#FFFFFF;}
	.st2{fill:#C30823;}
	.st3{fill:#415993;}
	.st4{fill:#5A7EA1;}
	.st5{fill:#4AAAE7;}
	.st6{fill:#AC2317;}
	.st7{fill:#9A9B9D;}
</style>
<circle class="st3" cx="75.7" cy="75.7" r="75.7"/>
<g id="Tv7kld.tif_00000159447483875286121570000015966710527345266363_">
	<g>
		<path class="st1" d="M79.8,103.1c-3.3,0-6.5,0-9.8,0c0-0.2,0-0.4,0-0.7c0-7.7,0-15.3,0-23c0-0.5-0.2-0.7-0.7-0.6
			c-1.9,0-3.9,0-5.8,0c-0.6,0-1.1,0.1-1.7,0c0-3.2,0-6.3,0-9.5c0.1,0,0.1,0,0.2,0c2.5,0,5.1,0,7.6,0c0.4,0,0.4-0.2,0.4-0.5
			c0-2,0-4.1,0-6.1c0-1.3,0.1-2.6,0.3-3.8c0.7-3.2,2.3-5.8,5.2-7.4c2.1-1.2,4.4-1.6,6.8-1.6c2.2,0,4.4,0.1,6.6,0.3
			c0.4,0,0.5,0.2,0.5,0.5c0,2.5,0,5,0,7.4c0,0.5-0.1,0.6-0.6,0.6c-1.9,0-3.8-0.1-5.7,0.1c-1.7,0.2-2.8,1-3.2,2.6
			c-0.1,0.4-0.2,0.8-0.2,1.3c0,2.1,0,4.1,0,6.2c0,0.4,0.1,0.5,0.5,0.5c2.8,0,5.5,0,8.3,0c0.4,0,0.5,0.1,0.4,0.5
			c-0.4,2.8-0.7,5.7-1.1,8.5c0,0.4-0.2,0.5-0.6,0.5c-2.3,0-4.6,0-7,0c-0.5,0-0.7,0.1-0.7,0.6c0,7.7,0,15.4,0,23.2
			C79.8,102.7,79.8,102.9,79.8,103.1z"/>
	</g>
</g>
</svg>
