<?xml version="1.0" encoding="utf-8"?>
<!-- Generator: Adobe Illustrator 26.0.1, SVG Export Plug-In . SVG Version: 6.00 Build 0)  -->
<svg version="1.1" xmlns="http://www.w3.org/2000/svg" xmlns:xlink="http://www.w3.org/1999/xlink" x="0px" y="0px"
	 viewBox="0 0 23.6 18.1" style="enable-background:new 0 0 23.6 18.1;" xml:space="preserve">
<style type="text/css">
	.st0{fill:#FFFFFF;}
	.st1{fill:#69E5F9;}
	.st2{fill:#EB3B24;}
	.st3{fill:#E4C380;}
	.st4{fill:#355D70;}
	.st5{fill:#74A8B6;}
	.st6{fill:#B9B3D3;}
	.st7{fill:#D18C80;}
	.st8{fill:#4477AE;}
	.st9{fill:#822845;}
	.st10{fill:#44183A;}
	.st11{fill:#284753;}
	.st12{fill:#95466D;}
	.st13{fill:#B2272C;}
	.st14{fill:#2C673D;}
	.st15{fill:none;stroke:#B2272C;stroke-miterlimit:10;}
	.st16{fill:none;stroke:#B2272C;stroke-linecap:round;stroke-miterlimit:10;}
	.st17{fill:none;stroke:#2C673D;stroke-linecap:round;stroke-miterlimit:10;}
</style>
<g id="Layer_2">
</g>
<g id="Layer_1">
	<g>
		<path class="st13" d="M22.5,2.1H1c-0.6,0-1-0.5-1-1v0c0-0.6,0.5-1,1-1h21.5c0.6,0,1,0.5,1,1v0C23.6,1.6,23.1,2.1,22.5,2.1z"/>
		<path class="st13" d="M22.5,10.1H1c-0.6,0-1-0.5-1-1v0c0-0.6,0.5-1,1-1h21.5c0.6,0,1,0.5,1,1v0C23.6,9.6,23.1,10.1,22.5,10.1z"/>
		<path class="st13" d="M15.4,18.1H1c-0.6,0-1-0.5-1-1v0c0-0.6,0.5-1,1-1h14.3c0.6,0,1,0.5,1,1v0C16.4,17.6,15.9,18.1,15.4,18.1z"/>
		<path class="st14" d="M22.5,18.1h-2.5c-0.6,0-1-0.5-1-1v0c0-0.6,0.5-1,1-1h2.5c0.6,0,1,0.5,1,1v0C23.6,17.6,23.1,18.1,22.5,18.1z"
			/>
	</g>
</g>
</svg>
