<?xml version="1.0" encoding="utf-8"?>
<!-- Generator: Adobe Illustrator 26.0.1, SVG Export Plug-In . SVG Version: 6.00 Build 0)  -->
<svg version="1.1" id="Layer_1" xmlns="http://www.w3.org/2000/svg" xmlns:xlink="http://www.w3.org/1999/xlink" x="0px" y="0px"
	 viewBox="0 0 88.7 56.8" style="enable-background:new 0 0 88.7 56.8;" xml:space="preserve">
<style type="text/css">
	.st0{fill:#FFFFFF;}
	.st1{fill:#BA3430;}
	.st2{fill:#C30823;}
	.st3{fill:#415993;}
	.st4{fill:#5A7EA1;}
	.st5{fill:#4AAAE7;}
	.st6{fill:#AC2317;}
	.st7{fill:#9A9B9D;}
	.st8{fill:none;stroke:#000000;stroke-width:2.0274;stroke-miterlimit:10;}
	.st9{fill:none;stroke:#D0D1D2;stroke-width:2;stroke-miterlimit:10;}
	.st10{fill:#1E4590;}
	.st11{fill:#51A5CD;stroke:#51A5CD;stroke-width:2;stroke-miterlimit:10;}
	.st12{stroke:#000000;stroke-width:2.0274;stroke-miterlimit:10;}
	.st13{fill:#FEBA00;}
	.st14{fill:#01AD45;}
	.st15{fill:#00A150;}
	.st16{fill:#2578ED;}
	.st17{fill:#FE2820;}
	.st18{fill:#E00543;}
	.st19{fill:#5E5E5E;}
	.st20{fill:#233B85;}
	.st21{fill:#039CDC;}
	.st22{fill:#253C86;}
	.st23{fill:#222B69;}
	.st24{fill:#51A5CD;}
	.st25{fill:#D82D2B;}
	.st26{fill:#EE6A2C;}
	.st27{fill:#ECA040;}
</style>
<path class="st0" d="M8.4,0h71.9c4.6,0,8.4,3.8,8.4,8.4v40c0,4.6-3.8,8.4-8.4,8.4H8.4C3.8,56.8,0,53,0,48.4v-40C0,3.8,3.8,0,8.4,0z"
	/>
<path class="st9" d="M5.7,1h77.3c2.6,0,4.7,2.1,4.7,4.7v45.5c0,2.6-2.1,4.7-4.7,4.7H5.7c-2.6,0-4.7-2.1-4.7-4.7V5.7
	C1,3.1,3.1,1,5.7,1z"/>
<g id="yjvnGS.tif">
	<g>
		<path class="st20" d="M19.5,19.4c0.2,0.3,0.5,0.1,0.8,0.2c2.3,0.5,3.2,1.7,3.1,4c-0.7-0.1-1.4-0.5-2.1-0.5c-1.5,0-3,0-4.4,0
			c-0.6,0-0.8,0.3-0.9,0.8c-0.2,1.1-0.4,2.1-0.5,3.2c-0.1,0.6-0.3,1.2-0.2,1.9c-0.2,0.2-0.3,0.5-0.3,0.8c-0.2,1.4-0.5,2.9-0.7,4.3
			c-0.9,0-1.9,0-2.8,0c-0.3,0-0.5-0.1-0.7-0.3c0-0.3,0-0.6,0-0.9c0.2-0.1,0.1-0.2,0.1-0.3c0.6-4,1.3-8.1,1.9-12.1
			c0.1-0.8,0.3-0.9,1.1-0.9c1.6,0,3.3,0,4.9,0c0.2,0,0.4,0.1,0.5-0.1C19.5,19.4,19.5,19.4,19.5,19.4z"/>
		<path class="st21" d="M14.3,34.1c0.2-1.4,0.5-2.9,0.7-4.3c0-0.3,0.1-0.6,0.3-0.8c0.2-0.3,0.5-0.4,0.9-0.4c0.6,0,1.1,0,1.7,0
			c1.3-0.1,2.6-0.4,3.6-1.2c1.2-0.9,1.6-2.2,2-3.6c0.7,0.5,1,1.3,1.1,2.2c0.1,1.1-0.2,2.1-0.6,3c-0.9,1.7-2.4,2.3-4.2,2.4
			c-0.2,0-0.5,0-0.7,0c-0.5,0-0.7,0.2-0.8,0.7c-0.1,1.1-0.3,2.1-0.5,3.2c-0.1,0.5-0.3,0.6-0.7,0.6c-0.8,0-1.6,0-2.5,0
			c-0.4,0-0.6-0.2-0.5-0.7C14.2,34.8,14.3,34.5,14.3,34.1z"/>
		<path class="st22" d="M34.5,23.8c0.8,0,1.7-0.1,2.6,0.1c1.4,0.4,2,1.2,1.8,2.7c-0.1,0.7-0.2,1.3-0.6,1.9c-0.7,1.2-1.8,1.6-3.1,1.7
			c-0.5,0-0.9,0-1.4,0c-0.4,0-0.6,0.2-0.7,0.6c-0.1,0.6-0.2,1.3-0.3,1.9c-0.1,0.5-0.3,0.8-0.9,0.8c-0.3,0-0.5,0-0.8,0
			c-0.9,0-0.9,0-0.8-0.9c0.4-2.6,0.8-5.2,1.3-7.9c0.1-0.9,0.2-1,1.1-1C33.3,23.8,33.8,23.8,34.5,23.8z M34.4,28.4
			c0.3,0,0.6-0.1,0.9-0.1c0.7-0.2,1.1-0.9,0.9-1.7c-0.1-0.5-0.5-0.7-1.4-0.7c-0.9-0.1-0.8,0.5-0.9,1c0,0.3-0.1,0.5-0.1,0.8
			C33.6,28.4,33.6,28.4,34.4,28.4z"/>
		<path class="st21" d="M56.7,33.5c-1.3,0-1.3,0.2-1.1-1.3c0.4-2.5,0.8-5,1.2-7.5c0.1-0.9,0.2-0.9,1.1-0.9c1,0,2,0,3,0
			c0.6,0,1.1,0.1,1.6,0.3c1.1,0.4,1.5,1.1,1.5,2.2c-0.1,2.6-1.5,4-4.1,4c-1.8,0-1.5-0.2-1.8,1.6c0,0.2-0.1,0.4-0.1,0.6
			C57.9,33.5,57.9,33.5,56.7,33.5z M59.7,28.4c0.1,0,0.3,0,0.5,0c0.8-0.1,1.3-0.6,1.2-1.5c0-0.6-0.4-0.9-1.3-1c-0.1,0-0.3,0-0.4,0
			c-0.4,0-0.6,0.1-0.7,0.5c0,0.4-0.1,0.8-0.2,1.2C58.7,28.4,58.7,28.4,59.7,28.4z"/>
		<path class="st22" d="M43.6,32.7c-0.9,0.7-1.7,0.9-2.6,0.9c-1.5-0.1-2.3-0.9-2.6-2.3C38,28.8,40.5,26.4,43,27
			c0.5,0.1,0.9,0.3,1.2,0.7c0.1-0.5,0.4-0.6,0.8-0.6c1.9,0,1.7-0.1,1.4,1.7c-0.2,1.3-0.4,2.7-0.6,4c-0.1,0.5-0.3,0.8-0.9,0.8
			c-0.3,0-0.6,0-0.9,0C43.7,33.6,43.3,33.5,43.6,32.7z M40.6,30.5c0,1,0.5,1.5,1.4,1.5c1,0,2-0.9,1.9-1.8c0-0.9-0.6-1.5-1.5-1.5
			C41.4,28.7,40.6,29.5,40.6,30.5z"/>
		<path class="st21" d="M69.4,27.7c0-0.6,0.3-0.6,0.7-0.6c0.4,0,0.8,0,1.1,0c0.4,0,0.6,0.2,0.5,0.6c-0.3,1.7-0.6,3.4-0.8,5.1
			c-0.1,0.5-0.3,0.7-0.8,0.7c-0.3,0-0.6,0-0.9,0c-0.5,0-0.7-0.1-0.6-0.7c-0.6,0.4-1.2,0.7-1.9,0.8c-2,0.3-3.4-0.9-3.3-2.9
			c0.1-2.5,2.4-4.3,4.7-3.7C68.7,27.1,69,27.3,69.4,27.7z M67.5,28.7c-1,0-1.8,0.8-1.8,1.8c0,0.9,0.6,1.5,1.5,1.5c1.1,0,2-1,1.9-2
			C69.1,29.3,68.4,28.7,67.5,28.7z"/>
		<path class="st23" d="M23.5,23.8c-0.3,1.4-0.8,2.7-2,3.6c-1.1,0.9-2.3,1.2-3.6,1.2c-0.6,0-1.1,0-1.7,0c-0.4,0-0.7,0.1-0.9,0.4
			c-0.1-0.6,0.1-1.3,0.2-1.9c0.1-1.1,0.3-2.1,0.5-3.2c0.1-0.5,0.3-0.8,0.9-0.8c1.5,0,3,0,4.4,0c0.7,0,1.4,0.4,2.1,0.5
			C23.5,23.7,23.5,23.7,23.5,23.8z"/>
		<path class="st22" d="M50.9,30.7c0.7-1.1,1.4-2,2-3c0.3-0.4,0.6-0.7,1.1-0.6c0.4,0,0.8,0,1.1,0c0.5,0,0.5,0.2,0.3,0.6
			c-0.5,0.7-0.9,1.3-1.4,2c-1.3,1.8-2.6,3.6-3.8,5.4c-0.4,0.6-0.9,1-1.6,0.8c-0.4-0.1-0.9,0.2-1.1-0.2c-0.2-0.4,0.2-0.8,0.5-1
			c1.2-1.2,1.3-2.4,0.6-3.9c-0.5-0.9-0.7-2-1.1-3c-0.2-0.6-0.1-0.7,0.5-0.7c2.1,0,1.6-0.3,2.2,1.6C50.4,29.4,50.6,30,50.9,30.7z"/>
		<path class="st21" d="M74.6,23.9c1.2,0,1.2,0,1,1.1c-0.4,2.6-0.8,5.3-1.3,7.9c-0.1,0.5-0.3,0.7-0.9,0.7c-1.8,0-1.5,0.1-1.3-1.4
			c0.4-2.5,0.8-5,1.2-7.5C73.5,23.7,73.3,23.9,74.6,23.9z"/>
	</g>
</g>
</svg>
