<?xml version="1.0" encoding="utf-8"?>
<!-- Generator: Adobe Illustrator 26.0.1, SVG Export Plug-In . SVG Version: 6.00 Build 0)  -->
<svg version="1.1" id="Layer_1" xmlns="http://www.w3.org/2000/svg" xmlns:xlink="http://www.w3.org/1999/xlink" x="0px" y="0px"
	 viewBox="0 0 88.7 56.8" style="enable-background:new 0 0 88.7 56.8;" xml:space="preserve">
<style type="text/css">
	.st0{fill:#FFFFFF;}
	.st1{fill:#BA3430;}
	.st2{fill:#C30823;}
	.st3{fill:#415993;}
	.st4{fill:#5A7EA1;}
	.st5{fill:#4AAAE7;}
	.st6{fill:#AC2317;}
	.st7{fill:#9A9B9D;}
	.st8{fill:none;stroke:#000000;stroke-width:2.0274;stroke-miterlimit:10;}
	.st9{fill:none;stroke:#D0D1D2;stroke-width:2;stroke-miterlimit:10;}
	.st10{fill:#1E4590;}
	.st11{fill:#51A5CD;stroke:#51A5CD;stroke-width:2;stroke-miterlimit:10;}
	.st12{stroke:#000000;stroke-width:2.0274;stroke-miterlimit:10;}
	.st13{fill:#FEBA00;}
	.st14{fill:#01AD45;}
	.st15{fill:#00A150;}
	.st16{fill:#2578ED;}
	.st17{fill:#FE2820;}
	.st18{fill:#E00543;}
	.st19{fill:#5E5E5E;}
	.st20{fill:#233B85;}
	.st21{fill:#039CDC;}
	.st22{fill:#253C86;}
	.st23{fill:#222B69;}
	.st24{fill:#51A5CD;}
	.st25{fill:#D82D2B;}
	.st26{fill:#EE6A2C;}
	.st27{fill:#ECA040;}
</style>
<path class="st0" d="M8.4,0h71.9c4.6,0,8.4,3.8,8.4,8.4v40c0,4.6-3.8,8.4-8.4,8.4H8.4C3.8,56.8,0,53,0,48.4v-40C0,3.8,3.8,0,8.4,0z"
	/>
<path class="st8" d="M5.7,1h77.3c2.6,0,4.7,2.1,4.7,4.7v45.5c0,2.6-2.1,4.7-4.7,4.7H5.7c-2.6,0-4.7-2.1-4.7-4.7V5.7
	C1,3.1,3.1,1,5.7,1z"/>
<g id="mGuVYh.tif">
	<g>
		<path class="st13" d="M15.3,24.5c-0.3,0.6-0.6,1.2-0.7,1.9c-0.2,1.2,0,2.4,0.6,3.5c0,0,0,0.1,0.1,0.1c-0.4,0.4-0.7,0.7-1.1,1.1
			c-0.8,0.8-1.5,1.5-2.3,2.3c0,0,0,0,0,0c-1-1.4-1.7-2.9-2-4.6c0-0.2,0-0.5-0.1-0.7c0-0.6,0-1.1,0-1.7c0.1-0.2,0.1-0.5,0.1-0.7
			c0.3-1.7,0.9-3.2,2-4.6c0.1,0.1,0.1,0.1,0.2,0.2c0.9,0.9,1.8,1.8,2.7,2.7C15,24.2,15.1,24.3,15.3,24.5z"/>
		<path class="st14" d="M11.9,33.4c0.8-0.8,1.5-1.5,2.3-2.3c0.4-0.4,0.7-0.7,1.1-1.1c0.4,0.6,0.8,1.1,1.4,1.6c1,0.7,2,1.1,3.2,1.1
			c0,1.6,0,3.2,0,4.8c-0.3,0-0.6,0-0.8,0c0-0.1-0.1,0-0.1,0c-1.8-0.2-3.4-0.8-4.8-1.8C13.3,35,12.5,34.3,11.9,33.4z"/>
		<path class="st15" d="M19.9,37.4c0-1.6,0-3.2,0-4.8c1,0,1.9-0.3,2.8-0.8c0.8,0.8,1.7,1.7,2.5,2.5c0.3,0.3,0.6,0.6,0.9,0.9
			c-1,0.8-2.2,1.4-3.5,1.7c-0.6,0.2-1.2,0.3-1.8,0.3c0,0-0.1,0-0.1,0C20.5,37.4,20.2,37.4,19.9,37.4z"/>
		<path class="st16" d="M26.1,35.3c-0.3-0.3-0.6-0.6-0.9-0.9c-0.8-0.8-1.6-1.7-2.5-2.5c0.8-0.5,1.4-1.1,1.9-1.9
			c0-0.1,0.1-0.2,0.1-0.2c0,0,0,0,0-0.1c-0.1-0.1-0.1,0-0.2,0c-1.5,0-2.9,0-4.4,0c-0.2,0-0.2,0-0.2-0.2c0-1.5,0-2.9,0-4.4
			c0-0.2,0.1-0.2,0.2-0.2c3.2,0,6.3,0,9.5,0c0.2,0,0.2,0,0.3,0.2c0.7,3.6-0.2,6.7-2.8,9.3C26.8,34.8,26.5,35.1,26.1,35.3z"/>
		<path class="st17" d="M15.3,24.5c-0.2-0.2-0.3-0.3-0.5-0.5c-0.9-0.9-1.8-1.8-2.7-2.7c-0.1-0.1-0.1-0.1-0.2-0.2
			c0.6-0.8,1.3-1.5,2.2-2.1c1.7-1.2,3.7-1.9,5.8-1.9c0,0,0.1,0,0.1,0c0,1.6,0,3.2,0,4.7c-1.2,0-2.3,0.4-3.2,1.1
			C16.1,23.4,15.7,23.9,15.3,24.5z"/>
		<path class="st18" d="M19.9,21.9c0-1.6,0-3.2,0-4.7c1.8,0,3.4,0.4,4.9,1.3c1,0.5,1.8,1.2,2.6,2c0.1,0.1,0.1,0.1,0,0.2
			c-1.1,1.1-2.1,2.1-3.2,3.2c-0.1,0.1-0.1,0.1-0.2,0c-0.5-0.5-1-0.9-1.6-1.2C21.7,22.1,20.8,21.9,19.9,21.9z"/>
	</g>
</g>
<path class="st19" d="M36.5,27.2c0-3.1,0-6.1,0-9.2c0-0.7,0.1-0.9,0.9-0.9c2.3,0.1,4.5,0,6.8,0c4,0,6.7,2.7,6.7,6.6
	c0,3.9-2.7,6.7-6.7,6.7c-1.3,0-2.5,0-3.8,0c-0.5,0-0.6,0.2-0.6,0.6c0,1.8,0,3.7,0,5.5c0,0.6-0.2,0.8-0.8,0.8c-0.5,0-1.1,0-1.6,0
	c-0.6,0.1-0.8-0.2-0.8-0.8C36.5,33.5,36.5,30.4,36.5,27.2z M39.7,23.8c0,1.2,0,2.3,0,3.5c0,0.4,0.1,0.6,0.5,0.6
	c1.4-0.1,2.9,0.1,4.3-0.1c2-0.4,3.1-1.8,3.1-4c0-2.1-1.1-3.5-3.1-3.8c-1.3-0.2-2.7-0.1-4.1-0.1c-0.6,0-0.7,0.2-0.7,0.8
	C39.7,21.6,39.7,22.7,39.7,23.8z"/>
<path class="st19" d="M61.2,35.2c-1.7,2.2-3.8,2.9-6.4,2.2c-1.9-0.5-3.1-2.1-3.1-4c-0.1-2,0.9-3.3,2.8-4.1c1.2-0.4,2.4-0.5,3.7-0.6
	c0.6,0,1.2,0,1.7-0.1c1.4-0.1,1.5-0.2,1.3-1.6c-0.2-1.2-0.9-2-2.1-2.2c-1.5-0.3-3.4,0.2-3.9,1.8C55.1,27,54.9,27,54.7,27
	c-0.5,0-1,0-1.5,0c-1.1,0-1.1,0-0.8-1.1c0.4-1.3,1.3-2.3,2.5-2.8c2.2-1,4.5-1.1,6.7-0.1c1.6,0.7,2.6,2.1,2.6,3.9c0,3.3,0,6.6,0,9.9
	c0,0.5-0.2,0.7-0.6,0.6c-0.7,0-1.6,0.2-2.1-0.1C61,36.9,61.4,36,61.2,35.2z M59.2,30.8c-1.2,0.2-2.3,0.1-3.3,0.5
	c-0.7,0.4-1.2,0.9-1.2,1.8c0,0.8,0.3,1.4,1,1.8c2.2,1.3,5.3-0.3,5.5-2.9c0.1-1.3,0.1-1.3-1.2-1.2C59.7,30.8,59.3,30.8,59.2,30.8z"/>
<path class="st19" d="M72.6,34.7c1-3.2,1.9-6.1,2.8-9.1c0.2-0.7,0.5-1.4,0.6-2.1c0.1-0.7,0.5-0.9,1.2-0.9c0.5,0.1,1,0,1.5,0
	c0.7-0.1,0.8,0.1,0.5,0.8c-1.2,3.2-2.3,6.4-3.4,9.6c-0.8,2.1-1.5,4.3-2.3,6.3c-1.1,2.8-2.7,3.7-5.7,3.6c-0.6,0-0.9-0.2-0.8-0.8
	c0.1-0.5-0.1-1.1,0.1-1.5c0.2-0.5,0.9-0.1,1.3-0.2c1.7-0.3,2.8-2.1,2.2-3.8c-1.6-4.4-3.2-8.8-4.8-13.2c-0.2-0.6-0.2-0.8,0.6-0.8
	c2.5,0,2.5,0,3.2,2.4c0.9,2.9,1.8,5.9,2.8,8.8C72.4,34,72.5,34.3,72.6,34.7z"/>
</svg>
