<?xml version="1.0" encoding="utf-8"?>
<!-- Generator: Adobe Illustrator 26.0.1, SVG Export Plug-In . SVG Version: 6.00 Build 0)  -->
<svg version="1.1" id="Layer_1" xmlns="http://www.w3.org/2000/svg" xmlns:xlink="http://www.w3.org/1999/xlink" x="0px" y="0px"
	 viewBox="0 0 88.7 56.8" style="enable-background:new 0 0 88.7 56.8;" xml:space="preserve">
<style type="text/css">
	.st0{fill:#FFFFFF;}
	.st1{fill:#BA3430;}
	.st2{fill:#C30823;}
	.st3{fill:#415993;}
	.st4{fill:#5A7EA1;}
	.st5{fill:#4AAAE7;}
	.st6{fill:#AC2317;}
	.st7{fill:#9A9B9D;}
	.st8{fill:none;stroke:#000000;stroke-width:2.0274;stroke-miterlimit:10;}
	.st9{fill:none;stroke:#D0D1D2;stroke-width:2;stroke-miterlimit:10;}
	.st10{fill:#1E4590;}
	.st11{fill:#51A5CD;stroke:#51A5CD;stroke-width:2;stroke-miterlimit:10;}
	.st12{stroke:#000000;stroke-width:2.0274;stroke-miterlimit:10;}
	.st13{fill:#FEBA00;}
	.st14{fill:#01AD45;}
	.st15{fill:#00A150;}
	.st16{fill:#2578ED;}
	.st17{fill:#FE2820;}
	.st18{fill:#E00543;}
	.st19{fill:#5E5E5E;}
	.st20{fill:#233B85;}
	.st21{fill:#039CDC;}
	.st22{fill:#253C86;}
	.st23{fill:#222B69;}
	.st24{fill:#51A5CD;}
	.st25{fill:#D82D2B;}
	.st26{fill:#EE6A2C;}
	.st27{fill:#ECA040;}
</style>
<path class="st10" d="M4.7,0h79.3c2.6,0,4.7,2.1,4.7,4.7v47.4c0,2.6-2.1,4.7-4.7,4.7H4.7c-2.6,0-4.7-2.1-4.7-4.7V4.7
	C0,2.1,2.1,0,4.7,0z"/>
<g id="jSaUwq.tif">
	<g>
		<path class="st0" d="M71.7,36.6c-1.2,0-2.3-0.1-3.5,0c-0.5,0-0.7-0.2-0.8-0.6c-0.1-0.5-0.2-1-0.3-1.5c0-0.2-0.1-0.4-0.4-0.4
			c-1.7,0-3.4,0-5.1,0c-0.2,0-0.3,0.1-0.4,0.3c-0.2,0.6-0.5,1.2-0.7,1.8c-0.1,0.3-0.2,0.4-0.5,0.3c-1.3,0-2.6,0-3.8,0
			c-0.5,0-0.4-0.2-0.3-0.5c1.6-3.5,3.1-7.1,4.7-10.6c0.5-1.2,1.1-2.5,1.6-3.7c0.4-1,1.2-1.5,2.3-1.5c1,0,2.1,0,3.1,0
			c0.3,0,0.4,0.1,0.5,0.4c1.1,4.9,2.2,9.9,3.3,14.8c0.1,0.2,0,0.5,0.2,0.7C71.7,36.4,71.7,36.5,71.7,36.6z M65,24.9c0,0-0.1,0-0.1,0
			c-0.3,0.8-0.6,1.6-0.9,2.4c-0.4,1-0.8,2.1-1.2,3.1c-0.1,0.2-0.2,0.4,0.2,0.4c1,0,2,0,3,0c0.2,0,0.3-0.1,0.3-0.3
			C65.8,28.6,65.4,26.8,65,24.9z"/>
		<path class="st0" d="M53.5,20c0.9,0.2,1.8,0.3,2.7,0.5c0.4,0.1,0.5,0.3,0.4,0.7c-0.2,0.8-0.3,1.7-0.4,2.5
			c-0.1,0.4-0.1,0.5-0.6,0.3c-1.4-0.6-2.8-0.8-4.2-0.5c-0.4,0.1-0.9,0.2-1.2,0.5c-0.5,0.4-0.5,1-0.1,1.5c0.4,0.4,0.8,0.6,1.3,0.9
			c0.8,0.4,1.6,0.8,2.4,1.2c3.6,2.1,2.4,6.2,0.1,7.7c-1.9,1.2-4.1,1.5-6.3,1.4c-1.3-0.1-2.5-0.3-3.7-0.6c-0.4-0.1-0.5-0.3-0.4-0.7
			c0.2-0.9,0.3-1.8,0.5-2.7c0.1-0.4,0.1-0.5,0.5-0.3c1.4,0.7,2.9,1,4.4,0.9c0.6,0,1.2-0.1,1.7-0.4c1-0.5,1.1-1.5,0.2-2.3
			c-0.6-0.5-1.3-0.7-1.9-1.1c-0.8-0.4-1.7-0.9-2.4-1.5c-1.9-1.8-1.7-4.5,0.4-6.3c1.3-1.1,2.8-1.5,4.4-1.7c0.2,0,0.4,0,0.5-0.1
			C52.4,20,53,20,53.5,20z"/>
		<path class="st0" d="M37.1,20.3c-0.8,1.8-1.5,3.4-2.2,5.1c-1.5,3.5-3,7-4.6,10.6c-0.2,0.4-0.3,0.5-0.7,0.5c-1.3,0-2.5,0-3.8,0
			c-0.3,0-0.4,0-0.5-0.3c-1.3-4.3-2.5-8.6-3.8-12.9c0,0,0-0.1,0-0.2c2.9,2.2,5.6,4.5,6.5,8.3c0.1-0.3,0.2-0.4,0.3-0.6
			c1.3-3.3,2.6-6.6,3.9-9.9c0.2-0.4,0.4-0.5,0.8-0.5C34.3,20.3,35.7,20.3,37.1,20.3z"/>
		<path class="st0" d="M41.1,20.3c0.5,0,1.1,0,1.6,0c0.5,0,0.6,0.1,0.5,0.6c-0.3,1.8-0.6,3.6-0.9,5.4c-0.6,3.3-1.1,6.5-1.7,9.8
			c-0.1,0.3-0.2,0.5-0.5,0.5c-1.2,0-2.4,0-3.6,0c-0.3,0-0.4-0.1-0.3-0.4c0.9-5.1,1.8-10.2,2.6-15.4c0.1-0.3,0.1-0.5,0.5-0.4
			C39.9,20.3,40.5,20.3,41.1,20.3z"/>
		<path class="st0" d="M27.2,28.1c-0.2-0.3-0.4-0.7-0.6-1c-1.8-3.1-4.6-5-8-6.2c-0.4-0.1-0.9-0.3-1.3-0.4c-0.1,0-0.3,0-0.3-0.2
			c0-0.2,0.2-0.2,0.3-0.2c1,0,2,0,3,0c1.1,0,2.2,0,3.4,0c1.4,0,1.9,0.4,2.2,1.8c0.4,1.9,0.8,3.8,1.2,5.8
			C27.3,27.9,27.3,28,27.2,28.1C27.3,28.1,27.2,28.1,27.2,28.1z"/>
	</g>
</g>
</svg>
