<?xml version="1.0" encoding="utf-8"?>
<!-- Generator: Adobe Illustrator 26.0.1, SVG Export Plug-In . SVG Version: 6.00 Build 0)  -->
<svg version="1.1" id="Layer_1" xmlns="http://www.w3.org/2000/svg" xmlns:xlink="http://www.w3.org/1999/xlink" x="0px" y="0px"
	 viewBox="0 0 88.7 56.8" style="enable-background:new 0 0 88.7 56.8;" xml:space="preserve">
<style type="text/css">
	.st0{fill:#FFFFFF;}
	.st1{fill:#BA3430;}
	.st2{fill:#C30823;}
	.st3{fill:#415993;}
	.st4{fill:#5A7EA1;}
	.st5{fill:#4AAAE7;}
	.st6{fill:#AC2317;}
	.st7{fill:#9A9B9D;}
	.st8{fill:none;stroke:#000000;stroke-width:2.0274;stroke-miterlimit:10;}
	.st9{fill:none;stroke:#D0D1D2;stroke-width:2;stroke-miterlimit:10;}
	.st10{fill:#1E4590;}
	.st11{fill:#51A5CD;stroke:#51A5CD;stroke-width:2;stroke-miterlimit:10;}
	.st12{stroke:#000000;stroke-width:2.0274;stroke-miterlimit:10;}
	.st13{fill:#FEBA00;}
	.st14{fill:#01AD45;}
	.st15{fill:#00A150;}
	.st16{fill:#2578ED;}
	.st17{fill:#FE2820;}
	.st18{fill:#E00543;}
	.st19{fill:#5E5E5E;}
	.st20{fill:#233B85;}
	.st21{fill:#039CDC;}
	.st22{fill:#253C86;}
	.st23{fill:#222B69;}
	.st24{fill:#51A5CD;}
	.st25{fill:#D82D2B;}
	.st26{fill:#EE6A2C;}
	.st27{fill:#ECA040;}
	.st28{font-family:'Poppins-Regular';}
	.st29{font-size:8.975px;}
</style>
<path class="st12" d="M5.7,1h77.3c2.6,0,4.7,2.1,4.7,4.7v45.5c0,2.6-2.1,4.7-4.7,4.7H5.7c-2.6,0-4.7-2.1-4.7-4.7V5.7
	C1,3.1,3.1,1,5.7,1z"/>
<g>
	<path class="st25" d="M44.4,34.8c-2.8,2.2-6.3,3.5-10.2,3.5c-9.1,0-16.4-7.3-16.4-16.4S25.2,5.6,34.2,5.6c3.8,0,7.4,1.3,10.2,3.5
		c-3.8,3-6.3,7.6-6.3,12.9S40.6,31.9,44.4,34.8z"/>
	<path class="st26" d="M50.7,22c0,5.2-2.4,9.9-6.3,12.9c-3.8-3-6.3-7.6-6.3-12.9s2.5-9.9,6.3-12.9C48.2,12.1,50.7,16.7,50.7,22z"/>
	<path class="st27" d="M70.9,22c0,9.1-7.4,16.4-16.4,16.4c-3.8,0-7.3-1.3-10.1-3.5c3.8-3,6.3-7.7,6.3-12.9s-2.4-9.9-6.3-12.9
		c2.8-2.2,6.3-3.5,10.1-3.5C63.6,5.6,70.9,12.9,70.9,22z"/>
	<text transform="matrix(1 0 0 1 17.8427 51.6335)" class="st0 st28 st29">mastercard</text>
</g>
</svg>
