<?xml version="1.0" encoding="utf-8"?>
<!-- Generator: Adobe Illustrator 26.0.1, SVG Export Plug-In . SVG Version: 6.00 Build 0)  -->
<svg version="1.1" id="Layer_1" xmlns="http://www.w3.org/2000/svg" xmlns:xlink="http://www.w3.org/1999/xlink" x="0px" y="0px"
	 viewBox="0 0 88.7 56.8" style="enable-background:new 0 0 88.7 56.8;" xml:space="preserve">
<style type="text/css">
	.st0{fill:#FFFFFF;}
	.st1{fill:#BA3430;}
	.st2{fill:#C30823;}
	.st3{fill:#415993;}
	.st4{fill:#5A7EA1;}
	.st5{fill:#4AAAE7;}
	.st6{fill:#AC2317;}
	.st7{fill:#9A9B9D;}
	.st8{fill:none;stroke:#000000;stroke-width:2.0274;stroke-miterlimit:10;}
	.st9{fill:none;stroke:#D0D1D2;stroke-width:2;stroke-miterlimit:10;}
	.st10{fill:#1E4590;}
	.st11{fill:#51A5CD;stroke:#51A5CD;stroke-width:2;stroke-miterlimit:10;}
	.st12{stroke:#000000;stroke-width:2.0274;stroke-miterlimit:10;}
	.st13{fill:#FEBA00;}
	.st14{fill:#01AD45;}
	.st15{fill:#00A150;}
	.st16{fill:#2578ED;}
	.st17{fill:#FE2820;}
	.st18{fill:#E00543;}
	.st19{fill:#5E5E5E;}
	.st20{fill:#233B85;}
	.st21{fill:#039CDC;}
	.st22{fill:#253C86;}
	.st23{fill:#222B69;}
	.st24{fill:#51A5CD;}
	.st25{fill:#D82D2B;}
	.st26{fill:#EE6A2C;}
	.st27{fill:#ECA040;}
</style>
<path class="st11" d="M5.7,1h77.3c2.6,0,4.7,2.1,4.7,4.7v45.5c0,2.6-2.1,4.7-4.7,4.7H5.7c-2.6,0-4.7-2.1-4.7-4.7V5.7
	C1,3.1,3.1,1,5.7,1z"/>
<g id="CgUpgJ.tif">
	<g>
		<path class="st0" d="M36.2,36.8c-0.7,0-1.3-0.2-1.9-0.5c-0.8-0.6-1.2-1.5-1.4-2.2c0-0.1-0.1-0.2-0.1-0.3c0,0.1,0,0.3,0,0.4
			c0,0.3,0,1.2-0.7,1.9c-0.7,0.7-1.5,0.7-1.8,0.7c-0.9,0-1.8,0-2.6,0c-0.9,0-1.7,0-2.6,0c0,0,0,0,0,0c-1.3,0-2.2-0.7-2.6-1.8
			c-0.2-0.3-0.3-0.7-0.4-1c0-0.1-0.1-0.2-0.1-0.3c-0.2,0-0.3,0-0.5,0c-0.3,0-0.6,0-0.9,0c0,0-2.4,0-2.7,0C18,33.9,18,34,17.9,34.2
			c-0.1,0.3-0.3,0.6-0.4,0.9c-0.4,1.1-1.3,1.7-2.4,1.7l-0.1,0c-0.3,0-0.7,0-1,0c-0.3,0-0.6,0-0.9,0c-0.1,0-0.2,0-0.3,0
			c-1.1,0-1.6-0.5-1.9-1c-0.4-0.6-0.4-1.4,0-2.3c0.8-1.8,1.6-3.6,2.4-5.4l1.3-3c0.5-1.1,1-2.2,1.5-3.4c0.6-1.5,1.8-1.7,2.5-1.7
			l0.1,0c0.5,0,1,0,1.5,0c0.5,0,1,0,1.4,0l0.1,0c0.8,0,1.9,0.3,2.5,1.7c0.6,1.4,1.3,2.8,1.9,4.3c0-1.1,0-2.2,0-3.4
			c0-0.3,0-1.2,0.7-1.9c0.4-0.5,1.1-0.7,1.8-0.7l0.2,0c0.6,0,1.1,0,1.7,0c0.6,0,1.2,0,1.8,0l0.1,0c0.8,0,1.9,0.3,2.5,1.7
			c0.7,1.5,1.3,3,2,4.5c0.7-1.5,1.4-3,2-4.6c0.6-1.4,1.8-1.6,2.5-1.6c0.7,0,1.3,0,2,0c0.7,0,1.3,0,2,0c0,0,0,0,0,0
			c0.8,0,1.4,0.2,1.8,0.7c0.4,0.4,0.7,1,0.7,1.8c0,3.9,0,7.9,0,11.8c0,0.3,0,1.1-0.7,1.8c-0.3,0.3-0.8,0.6-1.7,0.6l-0.2,0
			c-0.3,0-0.6,0-0.9,0c-0.3,0-0.6,0-0.9,0c-0.1,0-0.1,0-0.2,0c-0.9,0-1.4-0.4-1.7-0.7c-0.7-0.7-0.7-1.5-0.7-1.8c0-0.2,0-0.4,0-0.7
			l-0.1,0.2c-0.2,0.5-0.4,0.9-0.6,1.4c-0.6,1.4-1.7,1.5-2.2,1.5c-0.1,0-0.3,0-0.3,0c-0.2,0-0.3,0-0.5,0
			C36.8,36.8,36.5,36.8,36.2,36.8z"/>
		<path class="st24" d="M42.5,25.8c-1,2.2-2,4.4-3.1,6.6c-0.3,0.7-0.7,1.4-1,2.1c-0.1,0.3-0.3,0.5-0.7,0.4c0,0-0.1,0-0.1,0
			c-0.8,0-1.7,0.3-2.2-0.1c-0.5-0.4-0.7-1.3-1-1.9c-1-2.2-2-4.4-2.9-6.6c-0.1-0.2-0.2-0.4-0.3-0.7c-0.2,0.3-0.1,0.5-0.1,0.7
			c0,2.6,0,5.3,0,7.9c0,0.6-0.2,0.7-0.7,0.7c-1.7,0-3.5,0-5.2,0c-0.5,0-0.7-0.1-0.8-0.6c0,0,0,0,0-0.1c-0.4-0.7-0.4-1.8-1.1-2.2
			c-0.6-0.4-1.6-0.1-2.5-0.1c-1.1,0-2.2,0-3.3,0c-0.4,0-0.6,0.1-0.7,0.5c-0.2,0.7-0.6,1.3-0.8,2c-0.1,0.4-0.4,0.5-0.8,0.5
			c-0.7,0-1.4,0-2.1,0c-0.6,0-0.7-0.1-0.5-0.7c1.1-2.4,2.2-4.9,3.2-7.4c0.7-1.5,1.3-3,1.9-4.5c0.2-0.4,0.4-0.6,0.8-0.6c1,0,2,0,3,0
			c0.5,0,0.7,0.1,0.9,0.6c1.6,3.7,3.2,7.3,4.9,11c0.1,0.2,0.2,0.4,0.3,0.7c0.2-0.3,0.1-0.6,0.1-0.8c0-3.6,0-7.1,0-10.7
			c0-0.6,0.2-0.8,0.8-0.8c1.2,0,2.4,0,3.7,0c0.5,0,0.7,0.2,0.9,0.6c1.2,2.7,2.4,5.4,3.6,8.1c0.3-0.3,0.4-0.6,0.5-0.9
			c1.1-2.4,2.2-4.8,3.2-7.2c0.2-0.4,0.4-0.6,0.9-0.6c1.3,0,2.6,0,4,0c0.5,0,0.6,0.1,0.6,0.6c0,4,0,7.9,0,11.9c0,0.5-0.1,0.6-0.6,0.6
			c-0.7,0-1.3,0-2,0c-0.5,0-0.6-0.2-0.6-0.7c0-2.6,0-5.1,0-7.7c0-0.3,0-0.5,0-0.8C42.6,25.8,42.5,25.8,42.5,25.8z M20,24.6
			c-0.6,1.5-1.2,2.9-1.8,4.2c-0.2,0.4,0.1,0.4,0.3,0.4c1,0,1.9,0,2.9,0c0.4,0,0.5-0.1,0.3-0.5C21.2,27.4,20.7,26.1,20,24.6z"/>
		<path class="st0" d="M70.2,36.7c-1.1,0-1.7-0.8-1.9-1l-0.8-0.9c-0.4-0.5-0.9-1-1.3-1.5c-0.3,0.3-0.5,0.6-0.8,0.8
			c-0.4,0.5-0.9,1-1.3,1.5c-0.6,0.7-1.4,1.1-2.4,1.1c-1.9,0-3.7,0-5.6,0c-1.8,0-3.6,0-5.4,0c0,0,0,0,0,0c-0.4,0-1.2,0-1.8-0.7
			c-0.4-0.4-0.7-1.1-0.7-1.8c0-3.4,0-7.1,0-11.8c0-0.3,0-1.1,0.7-1.8c0.4-0.4,1-0.7,1.8-0.7c1.9,0,3.8,0,5.7,0c1.9,0,3.9,0,5.8,0
			c0.9,0,1.7,0.4,2.3,1.1c0.3,0.4,0.7,0.8,1,1.1c0.3,0.3,0.6,0.6,0.9,1c0.2-0.3,0.5-0.5,0.7-0.8c0.4-0.4,0.8-0.8,1.1-1.3
			c0.6-0.7,1.4-1,2.3-1c0.5,0,1,0,1.5,0l2.1,0h4.1L74,24.7c-1.1,1.2-2.2,2.4-3.2,3.5c1.1,1.3,2.2,2.6,3.3,3.9l0.8,1
			c0.2,0.2,0.7,0.7,0.8,1.6l0.2,2l-3.9,0L70.2,36.7z"/>
		<path class="st24" d="M74.1,21.9c-1.9,2.1-3.6,4-5.3,5.8c-0.4,0.4-0.4,0.6,0,1c1.6,1.8,3.1,3.7,4.7,5.5c0.1,0.2,0.4,0.3,0.4,0.7
			c-1.2,0-2.5,0-3.7,0c-0.3,0-0.4-0.2-0.5-0.4c-1-1.1-2-2.2-2.9-3.4c-0.4-0.6-0.7-0.5-1.1,0c-0.9,1.1-1.9,2.2-2.9,3.3
			c-0.3,0.3-0.6,0.5-1.1,0.5c-3.6,0-7.3,0-10.9,0c-0.5,0-0.7-0.1-0.7-0.7c0-3.9,0-7.9,0-11.8c0-0.5,0.1-0.7,0.6-0.7
			c3.8,0,7.7,0,11.5,0c0.4,0,0.7,0.1,0.9,0.4c0.9,1,1.8,2,2.6,3.1c0.5,0.6,0.7,0.5,1.2,0c0.9-1,1.8-2,2.7-3c0.3-0.3,0.6-0.4,1-0.4
			C71.7,21.9,72.8,21.9,74.1,21.9z M57.2,24.6C57.2,24.6,57.2,24.6,57.2,24.6c-0.7,0-1.4,0-2.2,0c-1.9,0-1.8,0-1.8,1.9
			c0,0.5,0.2,0.6,0.6,0.6c1.5,0,3.1,0,4.6,0c1.9,0,1.9,0,1.9,1.9c0,0.5-0.2,0.6-0.6,0.6c-1.5,0-3,0-4.5,0c-2,0-2,0-1.9,2
			c0,0.5,0.2,0.6,0.6,0.6c2.1,0,4.2,0,6.3,0c0.3,0,0.6-0.1,0.8-0.4c1-1.1,1.9-2.2,2.9-3.2c0.3-0.3,0.2-0.5,0-0.8
			C63,26.9,62.2,26,61.4,25c-0.2-0.3-0.5-0.4-0.9-0.4C59.4,24.6,58.3,24.6,57.2,24.6z"/>
	</g>
</g>
</svg>
