<?xml version="1.0" encoding="utf-8"?>
<!-- Generator: Adobe Illustrator 26.0.1, SVG Export Plug-In . SVG Version: 6.00 Build 0)  -->
<svg version="1.1" id="Layer_1" xmlns="http://www.w3.org/2000/svg" xmlns:xlink="http://www.w3.org/1999/xlink" x="0px" y="0px"
	 viewBox="0 0 151.3 151.3" style="enable-background:new 0 0 151.3 151.3;" xml:space="preserve">
<style type="text/css">
	.st0{fill:#BA3430;}
	.st1{fill:#FFFFFF;}
	.st2{fill:#C30823;}
	.st3{fill:#415993;}
	.st4{fill:#5A7EA1;}
	.st5{fill:#4AAAE7;}
	.st6{fill:#AC2317;}
	.st7{fill:#9A9B9D;}
</style>
<circle class="st7" cx="75.7" cy="75.7" r="75.7"/>
<g id="WoytGw.tif">
	<g>
		<path class="st1" d="M49.1,75.7c0-5.6-0.1-11.1,0-16.7c0.2-5.4,4.5-9.5,9.9-9.9c0.5,0,0.9-0.1,1.4-0.1c10.2,0,20.4,0,30.6,0
			c4.6,0,8.1,1.9,10.3,6c0.8,1.6,1.1,3.3,1.1,5.1c0,10.4,0,20.7,0,31.1c0,6.6-4.5,11-11.1,11.1c-10.3,0-20.7,0-31,0
			c-6.6,0-11.1-4.5-11.1-11.2C49,86,49,80.8,49.1,75.7C49.1,75.7,49.1,75.7,49.1,75.7z M75.6,97c5.3,0,10.6,0,15.9,0
			c3.1,0,5.4-2.1,5.5-5c0.1-6.1,0-12.1,0-18.2c0-0.6-0.2-0.8-0.8-0.8c-1.3,0-2.6,0-3.9,0c-0.8,0-0.9,0.3-0.8,1
			c0.2,1.4,0.2,2.7,0,4.1c-1,6.2-4.3,10.5-10.2,12.8C75.5,93,70,92,65.3,88c-4.3-3.6-6.1-8.4-5.4-14c0.1-0.8-0.1-1.1-0.9-1
			c-1.1,0.1-2.3,0.1-3.4,0c-0.9-0.1-1.1,0.3-1.1,1.2c0,5.6,0,11.3,0,16.9c0,3.8,2.1,5.9,5.9,5.9C65.4,97,70.5,97,75.6,97z
			 M86.3,75.7c0-5.8-4.8-10.6-10.6-10.6c-5.8,0-10.6,4.8-10.6,10.6c0,5.8,4.8,10.6,10.6,10.6C81.5,86.3,86.3,81.5,86.3,75.7z
			 M86.3,60.9c0,1.1,0,2.2,0,3.3c0,0.6,0.2,0.8,0.8,0.8c2.1,0,4.3,0,6.4,0c0.6,0,0.8-0.2,0.8-0.8c0-2.1,0-4.3,0-6.4
			c0-0.6-0.2-0.8-0.8-0.8c-2.1,0-4.3,0-6.4,0c-0.6,0-0.8,0.2-0.8,0.8C86.4,58.8,86.3,59.9,86.3,60.9z"/>
	</g>
</g>
</svg>
