<svg xmlns="http://www.w3.org/2000/svg" width="135" height="53"><g fill="none" fill-rule="nonzero"><path fill="#006937" d="M2.8 20a2.5 2.5 0 0 1-.6-5c1.4-.2 2.6.8 2.8 2.2.1 1.4-.8 2.6-2.2 2.8M17.8 18a2.5 2.5 0 0 1-.6-5 2.5 2.5 0 0 1 .6 5M32.8 16a2.5 2.5 0 0 1-.6-5 2.5 2.5 0 0 1 .6 5M47.8 14a2.5 2.5 0 0 1-.6-5 2.5 2.5 0 0 1 .6 5M62.8 13a2.5 2.5 0 0 1-.6-5 2.5 2.5 0 0 1 .6 5M77.8 11a2.5 2.5 0 0 1-.6-5c1.4-.2 2.6.8 2.8 2.2.1 1.4-.8 2.6-2.2 2.8M92.8 9a2.5 2.5 0 0 1-.6-5c1.4-.2 2.6.8 2.8 2.2.2 1.4-.8 2.7-2.2 2.8M107.8 7a2.5 2.5 0 0 1-.6-5c1.4-.2 2.6.8 2.8 2.2.2 1.4-.8 2.7-2.2 2.8M122.8 6a2.5 2.5 0 0 1-.6-5c1.4-.2 2.6.8 2.8 2.2.2 1.4-.8 2.7-2.2 2.8"/><path fill="#FFF" d="M132.8 5a2.5 2.5 0 0 1-.6-5c1.4-.2 2.6.8 2.8 2.2.2 1.4-.8 2.7-2.2 2.8"/><path fill="#006937" d="M2.8 35a2.5 2.5 0 0 1-.6-5c1.4-.2 2.6.8 2.8 2.2.1 1.4-.8 2.6-2.2 2.8M17.8 33a2.5 2.5 0 0 1-.6-5 2.5 2.5 0 0 1 .6 5M32.8 31a2.5 2.5 0 0 1-.6-5 2.5 2.5 0 0 1 .6 5M47.8 30a2.5 2.5 0 0 1-.6-5 2.5 2.5 0 0 1 .6 5M62.8 28a2.5 2.5 0 0 1-.6-5 2.5 2.5 0 0 1 .6 5M77.8 26a2.5 2.5 0 0 1-.6-5c1.4-.2 2.6.8 2.8 2.2.1 1.4-.8 2.6-2.2 2.8M92.8 24a2.5 2.5 0 0 1-.6-5 2.5 2.5 0 0 1 .6 5M107.8 23a2.5 2.5 0 0 1-.6-5c1.4-.2 2.6.8 2.8 2.2.2 1.4-.8 2.6-2.2 2.8M122.8 21a2.5 2.5 0 0 1-.6-5 2.5 2.5 0 0 1 .6 5M2.8 50a2.5 2.5 0 0 1-.6-5c1.4-.2 2.6.8 2.8 2.2.1 1.4-.8 2.7-2.2 2.8M17.8 48a2.5 2.5 0 0 1-.6-5 2.5 2.5 0 0 1 .6 5M32.8 46a2.5 2.5 0 0 1-.6-5 2.5 2.5 0 0 1 .6 5M47.8 45a2.5 2.5 0 0 1-.6-5 2.5 2.5 0 0 1 .6 5M62.8 43a2.5 2.5 0 0 1-.6-5 2.5 2.5 0 0 1 .6 5M77.8 41a2.5 2.5 0 0 1-.6-5c1.4-.2 2.6.8 2.8 2.2.1 1.4-.8 2.6-2.2 2.8M92.8 39a2.5 2.5 0 0 1-.6-5 2.5 2.5 0 0 1 .6 5M107.8 38a2.5 2.5 0 0 1-.6-5c1.4-.2 2.6.8 2.8 2.2.2 1.4-.8 2.6-2.2 2.8M122.8 36a2.5 2.5 0 0 1-.6-5 2.5 2.5 0 0 1 .6 5M107.8 53a2.5 2.5 0 0 1-.6-5c1.4-.2 2.6.8 2.8 2.2.2 1.4-.8 2.6-2.2 2.8M122.8 51a2.5 2.5 0 0 1-.6-5 2.5 2.5 0 0 1 .6 5"/><path fill="#006937" d="M122.8 21a2.5 2.5 0 0 1-.6-5 2.5 2.5 0 0 1 .6 5"/><path fill="#FFF" d="M132.8 20a2.5 2.5 0 0 1-.6-5 2.5 2.5 0 0 1 .6 5"/><path fill="#006937" d="M122.8 36a2.5 2.5 0 0 1-.6-5 2.5 2.5 0 0 1 .6 5"/><path fill="#FFF" d="M132.8 35a2.5 2.5 0 0 1-.6-5 2.5 2.5 0 0 1 .6 5"/><path fill="#006937" d="M122.8 51a2.5 2.5 0 0 1-.6-5c1.4-.2 2.7.8 2.8 2.2.2 1.4-.8 2.7-2.2 2.8"/><path fill="#FFF" d="M132.8 50a2.5 2.5 0 0 1-.6-5c1.4-.2 2.7.8 2.8 2.2.2 1.4-.8 2.7-2.2 2.8"/></g></svg>