<?xml version="1.0" encoding="utf-8"?>
<!-- Generator: Adobe Illustrator 26.0.1, SVG Export Plug-In . SVG Version: 6.00 Build 0)  -->
<svg version="1.1" id="Layer_1" xmlns="http://www.w3.org/2000/svg" xmlns:xlink="http://www.w3.org/1999/xlink" x="0px" y="0px"
	 viewBox="0 0 151.3 151.3" style="enable-background:new 0 0 151.3 151.3;" xml:space="preserve">
<style type="text/css">
	.st0{fill:#BA3430;}
	.st1{fill:#FFFFFF;}
	.st2{fill:#C30823;}
	.st3{fill:#415993;}
	.st4{fill:#5A7EA1;}
	.st5{fill:#4AAAE7;}
	.st6{fill:#AC2317;}
	.st7{fill:#9A9B9D;}
</style>
<circle class="st0" cx="75.7" cy="75.7" r="75.7"/>
<g id="VU3N2u.tif_00000129174916488782416130000015313114027624980379_">
	<g>
		<path class="st1" d="M97.3,70c-0.1,1-0.2,2-0.4,2.9c-1,5.2-3.4,9.6-7.7,12.7c-3.1,2.2-6.6,3.2-10.4,2.9c-2-0.1-3.8-0.8-5.4-2.1
			c-0.5-0.4-1-0.9-1.4-1.6c-0.3,1.3-0.7,2.4-1,3.6c-0.6,2.1-1,4.2-1.9,6.2c-1.2,2.9-2.9,5.5-4.6,8.1c-0.1,0.2-0.2,0.4-0.5,0.3
			c-0.2,0-0.3-0.2-0.3-0.4c-0.6-3.6-1-7.2-0.4-10.8c0.4-2.3,1.1-4.5,1.6-6.7c0.8-3.3,1.6-6.6,2.4-9.8c0.1-0.3,0-0.5-0.1-0.8
			c-1.1-2.9-1.3-5.8,0.1-8.6c1-2.1,2.6-3.4,5-3.6c2.5-0.2,4.4,1.5,4.5,4c0.1,1.5-0.3,2.9-0.7,4.3c-0.6,2.1-1.3,4.3-2,6.4
			c-1.2,3.8,1.7,6.5,5.1,6.4c2.9-0.1,5.2-1.4,7-3.7c2.1-2.5,3.1-5.5,3.4-8.7c0.3-2.7,0-5.4-1.2-7.9c-1.7-3.8-4.6-6.2-8.6-7.1
			c-3.8-0.9-7.5-0.7-11.1,0.8c-5.2,2.1-8.6,7.3-8.6,12.8c0,2.6,0.7,5.1,2.5,7.1c0.3,0.3,0.4,0.7,0.3,1.1c-0.3,1.1-0.5,2.3-0.9,3.4
			c-0.2,0.9-0.5,1-1.4,0.6c-2-1-3.4-2.5-4.5-4.4c-3.2-5.8-2.9-11.6,0.1-17.3c2.6-4.9,6.9-7.7,12.1-9.3c1.8-0.5,3.7-0.8,5.6-1
			c0.2,0,0.3,0,0.5-0.1c1.1,0,2.2,0,3.3,0c0.1,0,0.3,0.1,0.4,0.1c2.8,0.2,5.4,0.8,7.9,2c5.4,2.6,9.1,6.6,10.6,12.5
			c0.2,0.9,0.3,1.8,0.5,2.8C97.3,68.1,97.3,69,97.3,70z"/>
	</g>
</g>
</svg>
