<?xml version="1.0" encoding="utf-8"?>
<!-- Generator: Adobe Illustrator 26.0.1, SVG Export Plug-In . SVG Version: 6.00 Build 0)  -->
<svg version="1.1" id="Layer_1" xmlns="http://www.w3.org/2000/svg" xmlns:xlink="http://www.w3.org/1999/xlink" x="0px" y="0px"
	 viewBox="0 0 151.3 151.3" style="enable-background:new 0 0 151.3 151.3;" xml:space="preserve">
<style type="text/css">
	.st0{fill:#FFFFFF;}
	.st1{fill:#C30823;}
</style>
<circle class="st0" cx="75.5" cy="75.8" r="73"/>
<g>
	<path class="st1" d="M86.9,55.6c-4.2-0.4-7.7,0.9-10.7,3.8c-0.3,0.3-0.4,0.2-0.7,0c-3.8-3.6-8.3-4.8-13.4-3.3
		c-5.1,1.6-8.2,5.2-9.3,10.4c-0.6,3,0,5.9,1.3,8.7c1.5,3.3,3.6,6.1,6.1,8.7c4.4,4.6,9.3,8.5,14.7,11.8c0.2,0.1,0.4,0.2,0.6,0.3
		c0.2,0,0.4,0,0.6,0c2.8-1.6,5.4-3.5,7.9-5.4c3.5-2.8,6.8-5.8,9.7-9.3c2.1-2.6,3.9-5.5,4.8-8.8c0.2-0.9,0.3-1.7,0.5-2.6
		c0-0.7,0-1.3,0-2c-0.2-0.9-0.3-1.8-0.5-2.7C97,60,92.3,56.1,86.9,55.6z"/>
	<path class="st1" d="M145.4,46.2c-3.8-9-9.3-17.1-16.2-24.1c-6.9-6.9-15-12.4-24.1-16.2C95.8,2,85.9,0,75.7,0S55.5,2,46.2,5.9
		c-9,3.8-17.1,9.3-24.1,16.2c-6.9,6.9-12.4,15-16.2,24.1C2,55.5,0,65.5,0,75.7c0,10.2,2,20.1,5.9,29.5c3.8,9,9.3,17.1,16.2,24.1
		s15,12.4,24.1,16.2c9.3,3.9,19.2,5.9,29.5,5.9s20.1-2,29.5-5.9c9-3.8,17.1-9.3,24.1-16.2c6.9-6.9,12.4-15,16.2-24.1
		c3.9-9.3,5.9-19.2,5.9-29.5C151.3,65.5,149.3,55.5,145.4,46.2z M141.8,103.6c-3.6,8.5-8.8,16.2-15.4,22.8
		c-6.6,6.6-14.3,11.8-22.8,15.4c-8.8,3.7-18.2,5.6-27.9,5.6s-19.1-1.9-27.9-5.6c-8.5-3.6-16.2-8.8-22.8-15.4
		c-6.6-6.6-11.8-14.3-15.4-22.8C5.8,94.7,4,85.4,4,75.7C4,66,5.8,56.6,9.6,47.8C13.2,39.2,18.4,31.5,25,25
		c6.6-6.6,14.3-11.8,22.8-15.4C56.6,5.8,66,4,75.7,4s19.1,1.9,27.9,5.6c8.5,3.6,16.2,8.8,22.8,15.4c6.6,6.6,11.8,14.3,15.4,22.8
		c3.7,8.8,5.6,18.2,5.6,27.9C147.4,85.4,145.5,94.7,141.8,103.6z"/>
</g>
</svg>
