<?xml version="1.0" encoding="utf-8"?>
<!-- Generator: Adobe Illustrator 26.0.1, SVG Export Plug-In . SVG Version: 6.00 Build 0)  -->
<svg version="1.1" id="Layer_1" xmlns="http://www.w3.org/2000/svg" xmlns:xlink="http://www.w3.org/1999/xlink" x="0px" y="0px"
	 viewBox="0 0 151.3 151.3" style="enable-background:new 0 0 151.3 151.3;" xml:space="preserve">
<style type="text/css">
	.st0{fill:#BA3430;}
	.st1{fill:#FFFFFF;}
	.st2{fill:#C30823;}
	.st3{fill:#415993;}
	.st4{fill:#5A7EA1;}
	.st5{fill:#4AAAE7;}
	.st6{fill:#AC2317;}
	.st7{fill:#9A9B9D;}
</style>
<circle class="st5" cx="75.7" cy="75.7" r="75.7"/>
<g id="pUWkJk.tif_00000088096457454392348320000012178865198124857505_">
	<g>
		<path class="st1" d="M66.1,103.2c-1.5,0-3.1,0-4.6,0c-0.2,0-0.4-0.1-0.6-0.1c-4.5-0.3-8.7-1.4-12.8-3.2c-1.6-0.7-3.2-1.5-4.6-2.6
			c3.4,0.3,6.8,0,10.1-0.9c3.3-0.9,6.4-2.4,9.3-4.7c-3-0.2-5.5-1-7.7-2.7c-2.2-1.7-3.8-3.8-4.7-6.6c2,0.3,3.8,0.2,5.8-0.2
			c-6.5-2.1-10-6.4-10.5-13.3c2,0.9,3.8,1.6,6,1.6c-0.3-0.3-0.5-0.4-0.7-0.6C46,65.6,44.5,59,47.4,53.3c0.3-0.5,0.4-0.6,0.8-0.1
			c1.6,2,3.5,3.7,5.5,5.3c6.1,4.8,13,7.5,20.7,8c0.6,0,0.8,0,0.6-0.7c-0.3-1.4-0.3-2.9,0-4.4c1-5.2,4-8.9,9-10.5
			c5.1-1.7,9.6-0.5,13.5,3.1c0.3,0.3,0.5,0.4,1,0.3c2.5-0.6,4.9-1.5,7.1-2.7c0.2-0.1,0.4-0.3,0.7-0.2c-1,3-2.9,5.3-5.4,7
			c2.5-0.3,4.8-1,7.1-1.8c-0.2,0.4-0.3,0.7-0.6,0.9c-1.5,2.1-3.4,3.9-5.4,5.5c-0.3,0.2-0.5,0.4-0.5,0.9c0.2,8-1.9,15.4-6.2,22.1
			c-5.8,9-14,14.6-24.6,16.4C69.2,102.9,67.7,103,66.1,103.2z"/>
	</g>
</g>
</svg>
