<?xml version="1.0" encoding="utf-8"?>
<!-- Generator: Adobe Illustrator 26.0.1, SVG Export Plug-In . SVG Version: 6.00 Build 0)  -->
<svg version="1.1" id="Layer_1" xmlns="http://www.w3.org/2000/svg" xmlns:xlink="http://www.w3.org/1999/xlink" x="0px" y="0px"
	 viewBox="0 0 151.3 151.3" style="enable-background:new 0 0 151.3 151.3;" xml:space="preserve">
<style type="text/css">
	.st0{fill:#BA3430;}
	.st1{fill:#FFFFFF;}
	.st2{fill:#C30823;}
	.st3{fill:#415993;}
	.st4{fill:#5A7EA1;}
	.st5{fill:#4AAAE7;}
	.st6{fill:#AC2317;}
	.st7{fill:#9A9B9D;}
</style>
<circle class="st6" cx="75.7" cy="75.7" r="75.7"/>
<g id="FUhhtC.tif_00000183209057570662396870000014595523077666756535_">
	<g>
		<path class="st1" d="M102.2,76.1c-0.2,1-0.2,2-0.4,3c-1.2,6.7-4.4,12.1-9.7,16.4c-4.1,3.2-8.7,5.1-13.9,5.6
			c-7.8,0.7-14.7-1.5-20.5-6.8c-4.7-4.3-7.5-9.7-8.3-16C47.5,64.9,56.3,52,69.4,48.9c1.4-0.3,2.8-0.6,4.3-0.7c0.1,0,0.3,0,0.4-0.1
			c1.1,0,2.1,0,3.2,0c0.7,0.1,1.3,0.1,2,0.2c5.3,0.8,10,2.9,14.1,6.4c4.6,4.1,7.4,9.2,8.4,15.2c0.2,1,0.2,2,0.4,3
			C102.2,74,102.2,75.1,102.2,76.1z M100.2,74.6c0-13.5-11-24.5-24.5-24.5c-13.5,0-24.5,11-24.5,24.5c0,13.5,11,24.5,24.5,24.5
			C89.2,99.1,100.2,88.1,100.2,74.6z"/>
		<path class="st1" d="M66.9,74.6c0-3.9,0-7.9,0-11.8c0-0.1,0-0.2,0-0.4c0-1.1,0.8-1.6,1.8-1.1c2.6,1.5,5.2,3,7.8,4.5
			c4.4,2.6,8.8,5.1,13.3,7.7c0,0,0.1,0,0.1,0c1.1,0.7,1.1,1.6,0,2.2c-1.1,0.6-2.2,1.2-3.2,1.9c-5.9,3.4-11.8,6.8-17.7,10.2
			c-0.1,0.1-0.3,0.2-0.4,0.2c-0.7,0.3-1.4,0-1.5-0.7c-0.1-0.2-0.1-0.5-0.1-0.8C66.9,82.6,66.9,78.6,66.9,74.6z"/>
	</g>
</g>
</svg>
